SplineFontDB: 3.0
FontName: AyannaNarrowTamil-Light
FullName: AyannaNarrow
FamilyName: AyannaNarrow
OS2StyleName: "regular"
Weight: Light
Copyright: Licensed under the SIL Open Font License 1.1 (see file OFL.txt)
Version: pre
ItalicAngle: 0
UnderlinePosition: 0
UnderlineWidth: 0
Ascent: 819
Descent: 205
InvalidEm: 1
UFOAscent: 900
UFODescent: -400
LayerCount: 2
Layer: 0 0 "Back" 1
Layer: 1 0 "Fore" 0
PreferredKerning: 4
FSType: 0
OS2Version: 0
OS2_WeightWidthSlopeOnly: 0
OS2_UseTypoMetrics: 0
CreationTime: 1435046519
ModificationTime: 1441223185
PfmFamily: 16
TTFWeight: 400
TTFWidth: 5
LineGap: 0
VLineGap: 0
Panose: 2 0 6 0 0 0 0 0 0 0
OS2TypoAscent: 0
OS2TypoAOffset: 1
OS2TypoDescent: 0
OS2TypoDOffset: 1
OS2TypoLinegap: 0
OS2WinAscent: 0
OS2WinAOffset: 1
OS2WinDescent: 0
OS2WinDOffset: 1
HheadAscent: 0
HheadAOffset: 1
HheadDescent: 0
HheadDOffset: 1
OS2SubXSize: 861
OS2SubYSize: 799
OS2SubXOff: 0
OS2SubYOff: 246
OS2SupXSize: 861
OS2SupYSize: 799
OS2SupXOff: 0
OS2SupYOff: 615
OS2StrikeYSize: 61
OS2StrikeYPos: 307
OS2CapHeight: 720
OS2XHeight: 520
OS2Vendor: 'ACE '
OS2CodePages: 00000001.00000000
OS2UnicodeRanges: 80108003.00002042.00000000.00000000
Lookup: 260 0 0 "Mark to base attachment lookup 0" { "Mark to base attachment lookup 0-1"  } ['abvm' ('DFLT' <'dflt' > 'latn' <'dflt' > 'taml' <'dflt' > ) ]
MarkAttachClasses: 1
DEI: 91125
LangName: 1033 "Licensed under the SIL Open Font License 1.1 (see file OFL.txt)" "" "Medium" "" "" "Version 2.5.0" "" "" "" "" "" "" "" "" "" "" "ayanna-tamil" "tamil"
PickledDataWithLists: "(dp1
S'com.schriftgestaltung.weight'
p2
S'Light'
p3
sS'public.glyphOrder'
p4
(lp5
S'tm_A'
p6
aS'tm_Aa'
p7
aS'tm_Ai'
p8
aS'tm_Au'
p9
aS'tm_Ca'
p10
aS'tm_E'
p11
aS'tm_Ee'
p12
aS'tm_I'
p13
aS'tm_Ii'
p14
aS'tm_Ja'
p15
aS'tm_Ka'
p16
aS'tm_La'
p17
aS'tm_Lla'
p18
aS'tm_Llla'
p19
aS'tm_Ma'
p20
aS'tm_Na'
p21
aS'tm_Nga'
p22
aS'tm_Nna'
p23
aS'tm_Nnna'
p24
aS'tm_Nya'
p25
aS'tm_O'
p26
aS'tm_Oo'
p27
aS'tm_Pa'
p28
aS'tm_Ra'
p29
aS'tm_Rra'
p30
aS'tm_Sha'
p31

StartChar: tml_A
Encoding: 3 2949 0
GlifName: tm_A_
Width: 796
VWidth: 0
Flags: HMW
LayerCount: 2
Back
Fore
SplineSet
690 -119 m 257
 690 521 l 257
 726 521 l 257
 726 -119 l 257
 690 -119 l 257
50 64 m 256
 50 167 118 215 217 215 c 258
 698 215 l 257
 698 181 l 257
 217 181 l 258
 135 181 86 145 86 64 c 256
 86 -63 203 -100 298 -100 c 256
 421 -100 542 -11 542 198 c 0
 542 333 490 499 346 499 c 0
 304 499 263 471 263 408 c 0
 263 362 287 322 337 322 c 0
 394 322 411 360 412 409 c 4
 412 442 395 509 334 498 c 257
 368 527 l 257
 438 511 448 452 448 409 c 4
 448 328 400 288 336 288 c 0
 267 288 227 340 227 408 c 0
 227 491 281 536 348 536 c 0
 508 537 578 354 579 199 c 0
 580 8 476 -134 297 -134 c 256
 133 -134 50 -49 50 64 c 256
EndSplineSet
PickledDataWithLists: "(dp1
S'com.fontlab.hintData'
p2
(dp3
S'vhints'
p4
(lp5
(dp6
S'position'
p7
I60
sS'width'
p8
I32
sa(dp9
g7
I188
sg8
I32
sa(dp10
g7
I402
sg8
I32
sa(dp11
g7
I638
sg8
I33
sa(dp12
g7
I638
sg8
I11
sasS'hhints'
p13
(lp14
(dp15
g7
S'-134'
p16
sg8
I31
sa(dp17
g7
I132
sg8
I33
sa(dp18
g7
I240
sg8
I32
sa(dp19
g7
I454
sg8
I32
sass."
EndChar

StartChar: tml_E
Encoding: 9 2958 1
GlifName: tm_E_
Width: 596
VWidth: 0
Flags: HMW
LayerCount: 2
Back
SplineSet
36 239 m 260
 36 417.046875 140.021484375 543.703125 293 545 c 260
 296 450 l 260
 193.323242188 450 135 366.071289062 135 248 c 260
 135 154 153 66 222 66 c 260
 268 66 283 128 283 160 c 260
 283 206 262 251 217 251 c 260
 173 251 138 221 121 196 c 261
 110.874023438 218.708007812 97.0810546875 250.600585938 86 278 c 261
 117 315 164 345 221 345 c 260
 332 345 383 249 383 160 c 260
 383 52 322 -24 223 -24 c 260
 107 -24 36 87 36 239 c 260
291 545 m 5
 635 545 l 5
 635 450 l 5
 535 450 l 5
 535 0 l 5
 430 0 l 5x3e
 430 450 l 5
 289 450 l 5
 291 545 l 5
EndSplineSet
Fore
SplineSet
40 248 m 260
 40 419 119 545 292 545 c 4
 291 510 l 260
 140 510 77 400 77 248 c 260
 77 116 108 18 181 18 c 260
 245 18 268 93 268 170 c 260
 268 235 242 312 175 312 c 260
 109 312 74 236 83 157 c 261
 60 183 l 261
 61 287 110 347 175 347 c 260
 257 347 304 265 304 170 c 260
 304 65 266 -17 181 -17 c 260
 85 -17 40 95 40 248 c 260
277 510 m 5
 283 545 l 5
 556 545 l 5
 556 510 l 5
 446 510 l 5
 445 0 l 5
 409 0 l 5
 410 510 l 5
 277 510 l 5
EndSplineSet
PickledDataWithLists: "(dp1
S'com.schriftgestaltung.Glyphs.ColorIndex'
p2
I6
sS'public.markColor'
p3
S'0,0.67,0.91,1'
p4
s."
EndChar

StartChar: tml_Ee
Encoding: 10 2959 2
GlifName: tm_E_e
Width: 659
VWidth: 0
Flags: HMW
LayerCount: 2
Back
SplineSet
554 0 m 261x7e
 299 -238.46875 l 261
 233 -170.46875 l 261
 449 32 l 261
 554 0 l 261x7e
263 520 m 1
 641 520 l 1
 641 417 l 1
 554 417 l 1
 554 0 l 1
 449 0 l 1
 449 417 l 1
 368 417 l 1
 263 520 l 1
179 192 m 256
 137.571289062 192 101.643554688 162.4921875 83 136 c 257
 39 197 l 257
 69.177734375 245.380859375 123.74609375 285 185 285 c 256
 269.942382812 285 337 218.286132812 337 126 c 256
 337 39.517578125 281.951171875 -23 185 -23 c 256
 69.048828125 -23 5 88.525390625 5 242 c 256
 5 402.34765625 95.1357421875 519.044921875 243 520 c 256
 407 520.002929688 l 257
 404 417 l 256
 244 417 l 256
 152.537109375 417 110 343.458984375 110 242 c 256
 110 149.443359375 128.03125 82 185 82 c 256
 211.740234375 82 238 104.709960938 238 136 c 256
 238 168.448242188 212.297851562 192 179 192 c 256
EndSplineSet
Fore
SplineSet
40 248 m 256
 40 419 119 545 292 545 c 0
 291 510 l 256
 140 510 77 400 77 248 c 256
 77 116 108 18 181 18 c 256
 245 18 268 93 268 170 c 256
 268 235 242 312 175 312 c 256
 109 312 74 236 83 157 c 257
 60 183 l 257
 61 287 110 347 175 347 c 256
 257 347 304 265 304 170 c 256
 304 65 266 -17 181 -17 c 256
 85 -17 40 95 40 248 c 256
277 510 m 1
 283 545 l 1
 556 545 l 1
 556 510 l 1
 446 510 l 1
 445 0 l 1
 409 0 l 1
 410 510 l 1
 277 510 l 1
183 -195 m 261
 409 15 l 261
 445 0 l 261
 206 -219 l 261
 183 -195 l 261
EndSplineSet
PickledDataWithLists: "(dp1
S'com.schriftgestaltung.Glyphs.ColorIndex'
p2
I6
sS'public.markColor'
p3
S'0,0.67,0.91,1'
p4
s."
EndChar

StartChar: tml_I
Encoding: 5 2951 3
Width: 975
VWidth: 0
Flags: HMW
LayerCount: 2
Back
SplineSet
43 58 m 260
 41.8974609375 267.970703125 282.704101562 300 441 300 c 260
 599.645507812 300 808.224609375 252.377929688 808.008789062 60.66796875 c 4
 807.912109375 -25.66796875 772.581054688 -144.002929688 570.463867188 -143.969726562 c 4
 301.124023438 -143.92578125 155.370117188 153.09375 155.426757812 419.215820312 c 4
 155.4765625 645.885742188 287.610351562 787.62890625 522 786.40234375 c 4
 812.2421875 784.576171875 944.517578125 573.395507812 944.512695312 234 c 4
 944.51171875 158.674804688 944.793945312 -41.224609375 945 -98 c 5
 832.431640625 -97.01171875 l 5
 833.181640625 -47.716796875 834.6875 164.991210938 834.31640625 254 c 4
 833.26171875 514.950195312 717.1171875 677.333984375 522 676.684570312 c 4
 356.831054688 676.255859375 263.397460938 595.0234375 263.045898438 397.877929688 c 4
 262.62890625 154.759765625 450.471679688 -39.1982421875 567.678710938 -39.1982421875 c 4
 679.217773438 -39.1982421875 693.9453125 23 693.9453125 60.43359375 c 4
 693.9453125 114.9296875 654.044921875 183 449 183 c 260
 240.954101562 183 149 149.896484375 149 52 c 260
 149 -2.703125 186.102539062 -39 265 -39 c 260
 390.653320312 -39 566.517578125 117.404296875 594 307 c 4
 612.274414062 433.071289062 586.583984375 528.55859375 487 528 c 4
 458.642578125 527.840820312 440 504.786132812 440 476 c 4
 440 443.391601562 458.927734375 416.00390625 488 416 c 4
 511.65234375 415.997070312 535 434 535 473 c 4
 535 513.213867188 508.086914062 528 488 528 c 261
 588 534 l 261
 599.954101562 506.970703125 605.309570312 481.221679688 605.326171875 458 c 4
 605.381835938 380.180664062 560.826171875 325.504882812 482 325 c 4
 403.41796875 324.497070312 343.783203125 382.999023438 343 470 c 4
 342.162109375 563.083007812 404.567382812 621.4375 489 621 c 4
 670.244140625 620.059570312 725.051757812 455.893554688 702 291 c 4
 664.642578125 23.767578125 452.04296875 -144 275 -144 c 260
 108.650390625 -144 43.6103515625 -58.2607421875 43 58 c 260
EndSplineSet
Fore
SplineSet
73 49 m 256
 72 250 286 280 427 280 c 256
 575 280 768 215 768 49 c 0
 768 -31 741 -144 590 -144 c 0
 327 -144 185 153 185 419 c 0
 185 633 302 768 508 766 c 0
 754 764 866 561 866 234 c 0
 866 154 866 -58 866 -118 c 1
 828 -118 l 1
 829 -66 830 159 830 253 c 0
 829 547 717 731 504 730 c 0
 350 730 222 639 222 421 c 0
 221 128 386 -106 590 -106 c 0
 717 -106 733 -10 733 49 c 0
 733 147 632 241 429 241 c 256
 207 241 109 161 109 49 c 256
 109 -41 159 -99 265 -99 c 256
 426 -99 567 40 608 288 c 0
 631 428 598 577 461 576 c 0
 413 576 381 529 381 471 c 0
 381 414 413 367 463 367 c 0
 507 367 539 398 539 464 c 0
 539 546 495 576 462 576 c 257
 540 579 l 257
 565 538 576 498 576 463 c 0
 576 383 535 327 463 327 c 0
 396 327 345 382 344 465 c 0
 343 558 394 616 463 616 c 0
 616 615 665 451 643 286 c 0
 611 22 428 -144 275 -144 c 256
 130 -144 74 -62 73 49 c 256
EndSplineSet
EndChar

StartChar: tml_Ii
Encoding: 6 2952 4
GlifName: tm_I_i
Width: 542
VWidth: 0
Flags: HMW
LayerCount: 2
Back
SplineSet
207.200195312 277 m 260
 207.200195312 294.999894426 222.500105574 310.299804688 240.5 310.299804688 c 260
 258.499894426 310.299804688 273.799804688 294.999894426 273.799804688 277 c 260
 273.799804688 259.000105574 258.499894426 243.700195312 240.5 243.700195312 c 260
 222.500105574 243.700195312 207.200195312 259.000105574 207.200195312 277 c 260
422.200195312 277 m 260
 422.200195312 294.999894426 437.500105574 310.299804688 455.5 310.299804688 c 260
 473.499894426 310.299804688 488.799804688 294.999894426 488.799804688 277 c 260
 488.799804688 259.000105574 473.499894426 243.700195312 455.5 243.700195312 c 260
 437.500105574 243.700195312 422.200195312 259.000105574 422.200195312 277 c 260
EndSplineSet
Fore
SplineSet
207 277 m 260
 207 259 222 244 240 244 c 260
 258 244 274 259 274 277 c 260
 274 295 258 310 240 310 c 260
 222 310 207 295 207 277 c 260
422 277 m 260
 422 259 438 244 456 244 c 260
 474 244 489 259 489 277 c 260
 489 295 474 310 456 310 c 260
 438 310 422 295 422 277 c 260
338 0 m 1
 339 530 l 1
 375 530 l 1
 374 0 l 1
 338 0 l 1
70 0 m 1
 71 550 l 1
 512 550 l 1
 512 515 l 1
 107 515 l 1
 106 0 l 1
 70 0 l 1
EndSplineSet
PickledDataWithLists: "(dp1
S'com.schriftgestaltung.Glyphs.ColorIndex'
p2
I6
sS'public.markColor'
p3
S'0,0.67,0.91,1'
p4
s."
EndChar

StartChar: tml_La
Encoding: 30 2994 5
Width: 698
VWidth: 0
GlyphClass: 2
Flags: HMW
AnchorPoint: "tml_virama" 305 0 basechar 0
LayerCount: 2
Back
Fore
SplineSet
41 248 m 256
 41 426 102 555 235 555 c 0
 366 555 393 433 393 260 c 0
 393 254 393 249 393 243 c 257
 356 257 l 256
 356 409 340 520 234 520 c 256
 124 520 78 406 78 248 c 256
 78 116 109 18 182 18 c 256
 246 18 269 93 269 170 c 256
 269 235 243 312 176 312 c 256
 110 312 75 236 84 157 c 257
 61 183 l 257
 62 287 111 347 176 347 c 256
 258 347 305 265 305 170 c 256
 305 65 267 -17 182 -17 c 256
 86 -17 41 95 41 248 c 256
356 261 m 256
 393 251 l 256
 393 202 383 25 472 25 c 256
 575.853515625 25 582 127.192382812 582 249 c 256
 582 388 503 545 503 545 c 257
 539 545 l 257
 539 545 618 406 618 254 c 256
 618 129.544921875 608.176757812 -13 474 -13 c 256
 332 -13 356 198 356 261 c 256
EndSplineSet
EndChar

StartChar: tml_Lla
Encoding: 31 2995 6
GlifName: tm_L_la
Width: 892
VWidth: 0
Flags: HMW
AnchorPoint: "tml_virama" 449 0 basechar 0
LayerCount: 2
Back
SplineSet
424 0 m 1
 424 545 l 1
 853 545 l 1
 853 450 l 1
 753 450 l 1
 753 0 l 1
 648 0 l 1
 648 450 l 1
 529 450 l 1
 529 0 l 1
 424 0 l 1
36 239 m 256
 36 437 119 554 272 555 c 256
 440 556 513 385 497 160 c 256
 424 197 l 256
 424 343 376 461 276 461 c 256
 173 461 129 367 129 249 c 256
 129 155 148 72 217 72 c 256
 265 72 282 122 282 154 c 256
 282 216 247 243 209 243 c 256
 149 243 108 191 91 166 c 257
 81 189 67 225 56 252 c 257
 87 289 139 339 216 339 c 256
 293 339 386 289 386 153 c 260
 386 45 324 -24 216 -24 c 256
 100 -24 36 87 36 239 c 256
EndSplineSet
Fore
SplineSet
93 248 m 256
 93 426 154 555 287 555 c 0
 409 555 462 434 461 269 c 261
 431 283 l 260
 431 420 381 520 286 520 c 256
 176 520 130 406 130 248 c 256
 130 116 161 18 234 18 c 256
 298 18 321 93 321 170 c 256
 321 235 295 312 228 312 c 256
 162 312 127 236 136 157 c 257
 113 183 l 257
 114 287 163 347 228 347 c 256
 310 347 357 265 357 170 c 256
 357 65 319 -17 234 -17 c 256
 138 -17 93 95 93 248 c 256
430 0 m 1
 431 545 l 1
 832 545 l 1
 832 511 l 1
 712 511 l 1
 711 0 l 1
 675 0 l 1
 676 511 l 1
 467 511 l 1
 466 0 l 1
 430 0 l 1
EndSplineSet
PickledDataWithLists: "(dp1
S'com.schriftgestaltung.Glyphs.ColorIndex'
p2
I6
sS'public.markColor'
p3
S'0,0.67,0.91,1'
p4
s."
EndChar

StartChar: tml_Llla
Encoding: 32 2996 7
Width: 543
VWidth: 0
GlyphClass: 2
Flags: HMW
AnchorPoint: "tml_virama" 254 0 basechar 0
LayerCount: 2
Back
SplineSet
50 -104 m 5
 151 -104 l 5
 151 -176.964426877 200.727190136 -204 267 -204 c 4
 345.466764792 -204 375.75 -117.244331184 415 -117 c 4
 530 -167 l 4
 443.296703297 -167 434.502732562 -300 267 -300 c 4
 144.859610941 -300 50 -253.94 50 -104 c 5
236 13 m 5
 273 13 l 5
 278.305676353 -36.5515167501 289.933059854 -71.6444452619 451 -72 c 5
 529 -72 l 5
 530 -72 l 5
 530 -167 l 5
 396 -167 l 5
 306.912280702 -166.091028642 236 -112.817732306 236 13 c 5
EndSplineSet
Fore
SplineSet
80 -104 m 1
 111 -104 l 1
 111 -192 158 -226 237 -226 c 0
 353 -226 356 -107 409 -107 c 0
 442 -127 l 1
 373 -127 375 -260 237 -260 c 0
 153 -260 80 -223 80 -104 c 1
237 13 m 1
 272 13 l 1
 272 -13 l 1
 273 -73 296 -92 391 -92 c 1
 459 -92 l 1
 460 -92 l 1
 460 -127 l 1
 366 -127 l 1
 271 -126 237 -92 237 -13 c 1
 237 13 l 1
235 434 m 256
 235 521 273 560 336 561 c 256
 452 562 502 413 503 251 c 256
 504 79 464 0 379 0 c 257
 376 35 l 257
 445 34 466 124 466 251 c 256
 466 391 429 526 337 526 c 256
 294 526 270 494 270 424 c 256
 272 6 l 257
 237 6 l 256
 235 434 l 256
60 0 m 257
 60 545 l 257
 95 545 l 257
 95 35 l 257
 383 35 l 257
 383 0 l 257
 275 0 168 0 60 0 c 257
EndSplineSet
EndChar

StartChar: tml_Day
Encoding: 65 3059 8
GlifName: tm_N_aal
Width: 541
VWidth: 0
Flags: HMW
AnchorPoint: "tml_virama" 395 0 basechar 0
LayerCount: 2
Back
SplineSet
422 242 m 5
 433 243 l 261
 433.029296875 248.629882812 433.043945312 254.234375 433.043945312 259.813476562 c 4
 433.043945312 432.98046875 365.737304688 555.005859375 234.65234375 555.005859375 c 4
 101.221679688 555.005859375 41 425.974609375 41 248 c 260
 41 94.525390625 85.86328125 -17 182 -17 c 260
 267.442382812 -17 305 65.1845703125 305 170 c 260
 305 265.150390625 258.340820312 347 176 347 c 260
 110.561523438 347 61.8212890625 287.057617188 61 183 c 261
 84 157 l 261
 75.048828125 235.65625 110.42578125 312 176 312 c 260
 242.928710938 312 269 234.735351562 269 170 c 260
 269 92.75390625 246.10546875 18 182 18 c 260
 109.111328125 18 78 115.544921875 78 248 c 260
 78 405.525390625 124.11328125 520 234 520 c 260
 339.854492188 520 396 409 396 257 c 261
 400.290624767 262.21004436 380.041141685 104.495143066 350 33 c 261
 350 0 l 261
 521 0 l 261
 521 35 l 261
 392 35 l 261
 423.533203125 121 432.596679688 202.00390625 433 251 c 260
 422 242 l 5
EndSplineSet
Fore
SplineSet
350 0 m 257
 350 30 l 258
 392 35 l 258
 521 35 l 257
 521 0 l 257
 350 0 l 257
41 248 m 256
 41 426 102 555 235 555 c 0
 351 555 435 443 433 263 c 0
 432 165 412 87 387 18 c 1
 350 30 l 1
 377 99 396 217 396 268 c 0
 396 390 349 520 234 520 c 256
 124 520 78 406 78 248 c 256
 78 116 109 18 182 18 c 256
 246 18 269 93 269 170 c 256
 269 235 243 312 176 312 c 256
 110 312 75 236 84 157 c 257
 61 183 l 257
 62 287 111 347 176 347 c 256
 258 347 305 265 305 170 c 256
 305 65 267 -17 182 -17 c 256
 86 -17 41 95 41 248 c 256
EndSplineSet
PickledDataWithLists: "(dp1
S'com.schriftgestaltung.Glyphs.ColorIndex'
p2
I6
sS'public.markColor'
p3
S'0,0.67,0.91,1'
p4
s."
EndChar

StartChar: tml_Pa
Encoding: 25 2986 11
GlifName: tm_P_a
Width: 486
VWidth: 0
Flags: HMW
AnchorPoint: "tml_virama" 220 0 basechar 0
LayerCount: 2
Back
SplineSet
28 0 m 1
 28 543 l 1
 133 543 l 1
 133 100 l 1
 304 100 l 1
 304 543 l 1
 409 543 l 1
 409 0 l 1
 28 0 l 1
EndSplineSet
Fore
SplineSet
58 0 m 257
 58 545 l 257
 94 545 l 257
 94 34 l 257
 352 34 l 257
 352 545 l 257
 388 545 l 257
 388 0 l 257
 58 0 l 257
EndSplineSet
PickledDataWithLists: "(dp1
S'com.schriftgestaltung.Glyphs.ColorIndex'
p2
I5
sS'public.markColor'
p3
S'0.04,0.57,0.04,1'
p4
s."
EndChar

StartChar: tml_Ra
Encoding: 28 2992 12
GlifName: tm_R_a
Width: 485
VWidth: 0
Flags: HMW
AnchorPoint: "tml_virama" 206 0 basechar 0
LayerCount: 2
Back
SplineSet
58 0 m 5
 58 551 l 5
 487 551 l 5
 487 456 l 5
 387 456 l 5
 387 0 l 5
 282 0 l 5
 282 456 l 5
 163 456 l 5
 163 0 l 5
 58 0 l 5
69 -170 m 5
 284 32 l 5
 388 0 l 5
 133 -236 l 5
 69 -170 l 5
EndSplineSet
Fore
SplineSet
60 0 m 1
 61 545 l 1
 465 545 l 1
 465 510 l 1
 355 510 l 1
 354 0 l 1
 318 0 l 1
 319 510 l 1
 97 510 l 1
 96 0 l 1
 60 0 l 1
92 -195 m 261
 318 15 l 261
 354 0 l 261
 115 -219 l 261
 92 -195 l 261
EndSplineSet
PickledDataWithLists: "(dp1
S'com.schriftgestaltung.Glyphs.ColorIndex'
p2
I6
sS'public.markColor'
p3
S'0,0.67,0.91,1'
p4
sS'com.fontlab.hintData'
p5
(dp6
S'vhints'
p7
(lp8
(dp9
S'position'
p10
I80
sS'width'
p11
I33
sa(dp12
g10
I469
sg11
I33
sasS'hhints'
p13
(lp14
(dp15
g10
I0
sg11
I21
sa(dp16
g10
I485
sg11
I35
sass."
EndChar

StartChar: tml_Sha
Encoding: 34 2998 14
Width: 811
GlyphClass: 2
Flags: HMW
AnchorPoint: "tml_virama" 383 0 basechar 0
LayerCount: 2
Back
SplineSet
473 160 m 260
 473 470 l 260
 578 470 l 261
 578 160 l 260
 578 109 583 81 613 81 c 260
 661 81 681 191 681 275 c 260
 681 375 672 443 582 442 c 261
 592 545 l 261
 717 545 787 461 786 275 c 260
 784.98828125 142 731.377929688 -16.142578125 610 -15 c 260
 506.409179688 -14 473 46 473 160 c 260
276 442 m 5
 276 545 l 5
 597 545 l 5
 615 442 l 5
 276 442 l 5
61 545 m 5
 166 545 l 5
 166 154 l 6
 166 100.098765432 187 80 218 80 c 4
 257.375 80 276 108.678571429 276 153 c 6
 276 545 l 5
 381 545 l 5
 381 155 l 5
 381.244300959 25 307.200267989 -17 212 -17 c 4
 111.394904459 -17 61 52 61 156 c 6
 61 545 l 5
EndSplineSet
Fore
SplineSet
441 108 m 256
 441 530 l 256
 477 530 l 257
 477 108 l 256
 477 34 517 23 537 23 c 256
 615 23 642 131 642 275 c 256
 642 385 657 511 517 510 c 257
 527 545 l 257
 652 545 682 456 681 275 c 256
 680 142 655 -18 534 -15 c 256
 490 -14 441 5 441 108 c 256
310 510 m 1
 310 545 l 1
 532 545 l 1
 550 510 l 1
 310 510 l 1
105 148 m 2
 105 545 l 1
 141 545 l 1
 141 148 l 2
 141 74 163 20 224 20 c 0
 280 20 310 74 310 148 c 2
 310 545 l 1
 346 545 l 1
 346 148 l 2
 346 38 298 -17 222 -17 c 0
 141 -17 105 44 105 148 c 2
EndSplineSet
EndChar

StartChar: tml_Tta
Encoding: 20 2975 15
GlifName: tm_T_ta
Width: 643
VWidth: 0
Flags: HMW
AnchorPoint: "tml_virama" 340 0 basechar 0
LayerCount: 2
Back
SplineSet
60 0 m 5
 60 544 l 5
 165 544 l 5
 165 103 l 5
 633 103 l 5
 633 0 l 5
 60 0 l 5
EndSplineSet
Fore
SplineSet
70 0 m 257
 70 545 l 257
 105 545 l 257
 105 34 l 257
 593 34 l 257
 593 0 l 257
 70 0 l 257
EndSplineSet
PickledDataWithLists: "(dp1
S'com.schriftgestaltung.Glyphs.ColorIndex'
p2
I6
sS'public.markColor'
p3
S'0,0.67,0.91,1'
p4
s."
EndChar

StartChar: tml_Va
Encoding: 33 2997 17
GlifName: tm_V_a
Width: 637
VWidth: 0
Flags: HMW
AnchorPoint: "tml_virama" 393 0 basechar 0
LayerCount: 2
Back
SplineSet
340 79 m 1
 356.05859375 118.091796875 370.1328125 167.229492188 370.342773438 256 c 0
 370.596679688 382.725585938 319.8359375 467 243 467 c 256
 146.040039062 467 99 370.33984375 99 249 c 256
 99 155 115.956054688 72 163 72 c 256
 207.631835938 72 216 134.5234375 216 173 c 256
 216 231.943359375 189 264 162 264 c 260
 124.440429688 264 97.6494140625 215.405273438 108 143 c 257
 24 211 l 257
 45.78125 260.442382812 74.75390625 362 167 362 c 260
 235.942382812 362 315 306.711914062 315 170 c 256
 315 51.626953125 258.487304688 -24 163 -24 c 256
 61.0634765625 -24 0 87 0 239 c 256
 0 440.759765625 90 560.060546875 243 561 c 256
 377.2109375 561.852539062 471.719726562 437.063476562 471.749023438 258 c 0
 471.780273438 116.44140625 428 57 428 57 c 1
 340 79 l 1
340 79 m 257
 445 95 l 257
 549 95 l 257
 549 545 l 257
 654 545 l 257
 654 0 l 257
 341 0 l 257
 340 79 l 257
EndSplineSet
Fore
SplineSet
39 248 m 256
 39 426 100 555 233 555 c 0
 364 555 431 433 431 260 c 0
 431 254 431 249 431 243 c 257
 394 257 l 256
 394 409 338 520 232 520 c 256
 122 520 76 406 76 248 c 256
 76 116 107 18 180 18 c 256
 244 18 267 93 267 170 c 256
 267 235 241 312 174 312 c 256
 108 312 73 236 82 157 c 257
 59 183 l 257
 60 287 109 347 174 347 c 256
 256 347 303 265 303 170 c 256
 303 65 265 -17 180 -17 c 256
 84 -17 39 95 39 248 c 256
348 0 m 257
 348 33 l 257
 381 112 394 198 394 261 c 256
 431 251 l 256
 431 202 422 121 390 35 c 257
 541 35 l 257
 541 545 l 257
 577 545 l 257
 577 0 l 257
 348 0 l 257
EndSplineSet
PickledDataWithLists: "(dp1
S'com.schriftgestaltung.Glyphs.ColorIndex'
p2
I5
sS'public.markColor'
p3
S'0.04,0.57,0.04,1'
p4
s."
EndChar

StartChar: tml_MatraAa
Encoding: 38 3006 19
GlifName: tm_V_owelA_a
Width: 485
VWidth: 0
Flags: HMW
LayerCount: 2
Back
SplineSet
40 0 m 5
 40 545 l 5
 469 545 l 5
 469 450 l 5
 369 450 l 5
 369 0 l 5
 264 0 l 5
 264 450 l 5
 145 450 l 5
 145 0 l 5
 40 0 l 5
EndSplineSet
Fore
SplineSet
60 0 m 1
 61 545 l 1
 465 545 l 1
 465 510 l 1
 355 510 l 1
 354 0 l 1
 318 0 l 1
 319 510 l 1
 97 510 l 1
 96 0 l 1
 60 0 l 1
EndSplineSet
PickledDataWithLists: "(dp1
S'com.schriftgestaltung.Glyphs.ColorIndex'
p2
I6
sS'public.markColor'
p3
S'0,0.67,0.91,1'
p4
s."
EndChar

StartChar: tml_Ya
Encoding: 27 2991 20
Width: 606
VWidth: 0
GlyphClass: 2
Flags: HMW
AnchorPoint: "tml_virama" 336 0 basechar 0
LayerCount: 2
Back
SplineSet
124 -17 m 1048
-41 167 m 262,10,11
 -41 545 l 260,9,-1
 64 545 l 261,8,-1
 64 161 l 262,7,-1
 64 96.4267578125 86.5595703125 80 123 80 c 261,7,8
 205.642578125 80 224.141601562 134.143554688 224 222 c 4,5,6
 298.749023438 258 l 5,4,-1
 299.033203125 74.6162109375 218.877929688 -16.693359375 124 -17 c 4,0,0
 -8.2451171875 -17.5703125 -41 56.6220703125 -41 167 c 262,10,11
224 0 m 1,28,-1
 224 545 l 1,27,-1
 329 545 l 1,36,-1
 329 95 l 1,35,-1
 448 95 l 1,34,-1
 448 545 l 1,33,-1
 553 545 l 1,32,-1
 553 0 l 1,29,-1
 224 0 l 1,28,-1
EndSplineSet
Fore
SplineSet
50 130 m 258
 50 545 l 256
 83 545 l 257
 83 136 l 258
 83 106 83 76 99 53 c 0
 114 32 135 17 174 17 c 256
 246 17 266 84 266 192 c 0
 289 209 l 1
 289 59 267 -16 174 -16 c 0
 118 -16 86 5 68 35 c 0
 52 60 50 91 50 130 c 258
266 0 m 257
 266 545 l 257
 302 545 l 257
 302 34 l 257
 510 34 l 257
 510 545 l 257
 546 545 l 257
 546 0 l 257
 453 0 359 0 266 0 c 257
EndSplineSet
EndChar

StartChar: tml_Seven
Encoding: 59 3053 21
Width: 516
VWidth: 0
Flags: HMW
LayerCount: 2
Back
SplineSet
36 239 m 260
 36 417.046875 140.021484375 543.703125 293 545 c 260
 296 450 l 260
 193.323242188 450 135 366.071289062 135 248 c 260
 135 154 153 66 222 66 c 260
 268 66 283 128 283 160 c 260
 283 206 262 251 217 251 c 260
 173 251 138 221 121 196 c 261
 110.874023438 218.708007812 97.0810546875 250.600585938 86 278 c 261
 117 315 164 345 221 345 c 260
 332 345 383 249 383 160 c 260
 383 52 322 -24 223 -24 c 260
 107 -24 36 87 36 239 c 260
291 545 m 5
 546 545 l 5
 546 450 l 5
 546 450 l 5
 546 0 l 5
 441 0 l 5x3e
 441 450 l 5
 289 450 l 5
 291 545 l 5
EndSplineSet
Fore
SplineSet
40 248 m 260
 40 419 119 545 292 545 c 4
 291 510 l 260
 140 510 77 400 77 248 c 260
 77 116 108 18 181 18 c 260
 245 18 268 93 268 170 c 260
 268 235 242 312 175 312 c 260
 109 312 74 236 83 157 c 261
 60 183 l 261
 61 287 110 347 175 347 c 260
 257 347 304 265 304 170 c 260
 304 65 266 -17 181 -17 c 260
 85 -17 40 95 40 248 c 260
278 510 m 1
 284 545 l 1
 456 545 l 1
 455 0 l 1
 419 0 l 1
 420 510 l 1
 278 510 l 1
EndSplineSet
EndChar

StartChar: tml_Aa
Encoding: 4 2950 22
Width: 1024
VWidth: 0
Flags: HMW
LayerCount: 2
Back
Fore
SplineSet
553 -130 m 1
 585 -126 l 1
 597 -277 675 -341 805 -329 c 0
 912 -320 960 -219 960 -114 c 0
 960 -5 928 88 838 88 c 0
 756 88 727 29 726 -20 c 1
 690 -53 l 1
 688 62 746 122 836 122 c 0
 956 122 994 5 994 -110 c 0
 994 -257 925 -350 808 -361 c 0
 703 -370 572 -344 553 -130 c 1
EndSplineSet
Refer: 0 2949 N 1 0 0 1 -1 0 2
EndChar

StartChar: tml_Nya
Encoding: 19 2974 23
Width: 774
VWidth: 0
Flags: HMW
LayerCount: 2
Back
Fore
SplineSet
152 248 m 256
 152 419 231 545 404 545 c 0
 403 510 l 256
 252 510 189 400 189 248 c 256
 189 116 220 18 293 18 c 256
 357 18 380 93 380 170 c 256
 380 235 354 312 287 312 c 256
 221 312 186 236 195 157 c 257
 172 183 l 257
 173 287 222 347 287 347 c 256
 369 347 416 265 416 170 c 256
 416 65 378 -17 293 -17 c 256
 197 -17 152 95 152 248 c 256
389 510 m 1
 395 545 l 1
 668 545 l 1
 668 510 l 1
 558 510 l 1
 557 0 l 1
 521 0 l 1
 522 510 l 1
 389 510 l 1
30 242 m 4
 30 333 54 429 112 531 c 5
 142 517 l 5
 86 421 64 333 64 244 c 4
 64 -36 215 -135 422 -135 c 4
 618 -135 708 15 708 158 c 4
 708 235 691 300 638 300 c 4
 602 300 581 276 570 242 c 4
 560 213 556 177 556 144 c 5
 530 164 l 5
 529 203 534 236 544 262 c 4
 562 310 594 334 636 334 c 4
 716 334 742 247 742 162 c 4
 742 -33 624 -171 422 -171 c 4
 269 -171 31 -119 30 242 c 4
EndSplineSet
EndChar

StartChar: tml_Virama
Encoding: 49 3021 24
Width: 0
VWidth: 0
Flags: HMW
AnchorPoint: "tml_virama" 0 -0 mark 0
LayerCount: 2
Back
Fore
SplineSet
-31 682 m 0
 -31 699 -17 713 0 713 c 0
 17 713 31 699 31 682 c 0
 31 665 17 651 0 651 c 0
 -17 651 -31 665 -31 682 c 0
EndSplineSet
EndChar

StartChar: tml_Nnna
Encoding: 24 2985 25
Width: 835
VWidth: 0
Flags: HMW
AnchorPoint: "tml_virama" 404 0 basechar 0
LayerCount: 2
Back
SplineSet
289 556 m 5
 311 556 l 5
 311 461 l 5
 289 461 l 5
 289 556 l 5
289 461 m 260
 151.046875 461 96 367.583984375 96 249 c 260
 96 155 112.956054688 72 160 72 c 260
 204.631835938 72 213 134.5234375 213 173 c 260
 213 231.943359375 187 264 161 264 c 260
 122.049804688 264 94.2666015625 215.405273438 105 143 c 261
 21 211 l 261
 43.0859375 260.442382812 72.4638671875 362 166 362 c 260
 234.010742188 362 312 306.711914062 312 170 c 260
 312 51.626953125 255.487304688 -24 160 -24 c 260
 58.0634765625 -24 -3 87 -3 239 c 260
 -3 437.626953125 105.1484375 555.04296875 289 556 c 260
 289 461 l 260
308 556 m 260
 459.649414062 556 619 457.670898438 619 208 c 260
 619 50.59765625 576.403320312 -24 475 -24 c 260
 378.028320312 -24 330 53.3388671875 330 208 c 260
 330 413.654296875 409.397460938 544.872070312 594 546 c 261
 862 546 l 5
 862 451 l 5
 762 451 l 5
 762 0 l 5
 657 0 l 5
 657 451 l 5
 595 451 l 261
 479.397460938 451 435 358.591796875 435 208 c 260
 435 137.209960938 447.90234375 72 475 72 c 260
 502.305664062 72 513 129.956054688 513 207 c 260
 513 402.546875 398.958007812 461 308 461 c 260
 308 556 l 260
EndSplineSet
Fore
SplineSet
40 248 m 256
 40 422 119 550 292 550 c 0
 291 514 l 256
 140 514 77 402 77 248 c 256
 77 116 108 18 181 18 c 256
 245 18 268 93 268 170 c 256
 268 235 242 312 175 312 c 256
 109 312 74 236 83 157 c 257
 60 183 l 257
 61 287 110 347 175 347 c 256
 257 347 304 265 304 170 c 256
 304 65 266 -17 181 -17 c 256
 85 -17 40 95 40 248 c 256
291 514 m 256
 291 550 l 256
 295 550 299 550 303 550 c 0
 452 550 576 436 576 216 c 260
 576 81 538 -17 467 -17 c 260
 397 -17 358 83 358 221 c 260
 358 468 501 545 660 545 c 256
 660 511 l 256
 527 511 395 450 395 221 c 260
 395 104 421 19 469 19 c 260
 517 19 539 102 539 216 c 260
 539 407 438 515 304 515 c 0
 300 515 295 514 291 514 c 256
645 511 m 1
 657 545 l 1
 805 545 l 1
 805 511 l 1
 705 511 l 1
 705 1 l 1
 669 1 l 1
 669 511 l 1
 645 511 l 1
EndSplineSet
EndChar

StartChar: tml_Nna
Encoding: 21 2979 26
Width: 1115
VWidth: 0
Flags: HMW
LayerCount: 2
Back
Fore
SplineSet
100 248 m 256
 100 422 179 550 352 550 c 0
 351 514 l 256
 200 514 137 402 137 248 c 256
 137 116 168 18 241 18 c 256
 305 18 328 93 328 170 c 256
 328 235 302 312 235 312 c 256
 169 312 134 236 143 157 c 257
 120 183 l 257
 121 287 170 347 235 347 c 256
 317 347 364 265 364 170 c 256
 364 65 326 -17 241 -17 c 256
 145 -17 100 95 100 248 c 256
351 514 m 256
 351 550 l 256
 355 550 359 550 363 550 c 0
 507 550 628 436 628 216 c 256
 628 81 590 -17 519 -17 c 256
 449 -17 410 83 410 221 c 256
 410 468 524 545 650 545 c 257
 720 545 888 507 888 216 c 256
 888 81 850 -17 779 -17 c 256
 714 -17 677 83 677 221 c 256
 677 468 811 545 960 545 c 256
 960 511 l 256
 837 511 714 450 714 221 c 256
 714 104 737 19 781 19 c 256
 829 19 851 102 851 216 c 256
 851 449 731 511 650 511 c 257
 548 511 447 450 447 221 c 256
 447 104 473 19 521 19 c 256
 569 19 591 102 591 216 c 256
 591 407 493 515 364 515 c 0
 360 515 355 514 351 514 c 256
925 511 m 1
 937 545 l 1
 1085 545 l 1
 1085 511 l 1
 985 511 l 1
 985 1 l 1
 949 1 l 1
 949 511 l 1
 925 511 l 1
EndSplineSet
EndChar

StartChar: tml_Ma
Encoding: 26 2990 27
Width: 572
VWidth: 0
Flags: HMW
AnchorPoint: "tml_virama" 253 -10 basechar 0
LayerCount: 2
Back
SplineSet
459 0 m 261
 426 95 l 261
 479.826171875 94.0146484375 496.095703125 161.565429688 496 251 c 260
 495.915474002 344.243580086 467.179096639 465 396 465 c 260
 360.290305397 465 354 422.291024344 354 359 c 260
 356 6 l 261
 257 7 l 260
 255 364 l 260
 255 492.949779613 288.101592318 560.338359112 395 561 c 260
 532.004473287 561.843670405 591.964591734 392.879928733 593 251 c 260
 594.401367188 78.625 550.383789062 0.30859375 459 0 c 261
60 0 m 261
 60 545 l 261
 165 545 l 261
 165 95 l 261
 433 95 l 261
 463 0 l 261
 60 0 l 261
EndSplineSet
Fore
SplineSet
234 434 m 256
 234 521 272 561 335 561 c 256
 451 562 501 413 502 251 c 256
 503 79 463 0 378 0 c 257
 375 35 l 257
 444 34 465 124 465 251 c 256
 465 390 428 525 336 525 c 256
 293 525 269 493 269 424 c 256
 271 6 l 257
 236 7 l 256
 234 434 l 256
59 0 m 257
 59 545 l 257
 94 545 l 257
 94 35 l 257
 382 35 l 257
 382 0 l 257
 274 0 167 0 59 0 c 257
EndSplineSet
EndChar

StartChar: tml_Ka
Encoding: 15 2965 31
Width: 632
GlyphClass: 2
Flags: HMW
LayerCount: 2
Back
SplineSet
417 201 m 5
 412.21875 97.291015625 376.669921875 0 218 0 c 4
 91 0 42.1650390625 73.001953125 41 170 c 4
 39.6982421875 261.125 92.75 332 179 332 c 6
 451 332 l 4
 527 332 602 299 602 172 c 4
 602 78 576 1 454 -1 c 5
 412 1 l 5
 412 90 l 5
 446 90 l 6
 485 90 502 119 502 172 c 4
 502 219 478 236 438 236 c 4
 197 238 l 4
 157 238 138 208 138 170 c 4
 138 121 168 95 218 95 c 4
 282.247070312 95 307.190429688 138.397460938 312 201 c 5
 312 452 l 5
 252 452 l 5
 252 301 l 5
 147 301 l 5
 147 545 l 5
 517 545 l 5
 517 452 l 5
 417 452 l 5
 417 201 l 5
EndSplineSet
Fore
SplineSet
417 201 m 2
 417 98.1674641148 381.020100503 2 238 2 c 4
 103.824858757 2 52.1844323799 73.7312587781 51 170 c 0
 50.0632911392 244.148148148 106.265822785 302 199 302 c 2
 435 302 l 0
 516.536423841 302 597 273.125 597 162 c 0
 597 79.8771929825 571.878378378 12.7660818713 454 11 c 5
 412 11 l 5
 412 45 l 5
 456 45 l 6
 526.509433962 45 557 85.9927007299 557 162 c 0
 557 238.322580645 509.850877193 266 432 266 c 0
 197 268 l 0
 149.369747899 268 88 248.09375 88 170 c 0
 88 83.5034965035 143.714285714 37 238 37 c 4
 336.181974085 37 382 103.91954023 382 201 c 2
 382 490 l 1
 222 490 l 1
 222 282 l 1
 187 282 l 1
 187 525 l 1
 517 525 l 1
 517 490 l 1
 417 490 l 1
 417 201 l 2
EndSplineSet
EndChar

StartChar: tml_Nga
Encoding: 16 2969 32
Width: 667
GlyphClass: 2
Flags: HMW
AnchorPoint: "tml_virama" 260 0 basechar 0
LayerCount: 2
Back
SplineSet
608 553 m 5
 713 553 l 5
 713 0 l 5
 608 0 l 5
 608 553 l 5
253 95 m 5
 690 95 l 5
 690 0 l 5
 253 0 l 5
 253 95 l 5
280 94 m 257
 340 94 l 256
 464.499023438 95.3671875 462.100585938 212.686523438 461.87109375 248 c 256
 461.625976562 285.744140625 439.92578125 308.173828125 415 307.752929688 c 256
 398.356445312 307.471679688 357.141601562 306.749023438 358 214 c 256
 358.16015625 196.643554688 358.004882812 187.368164062 358 168.71875 c 257
 268.580078125 171.28125 l 257
 258.969726562 215.296875 268.177734375 292.583984375 297.5 336.061523438 c 256
 331.768554688 386.874023438 362.829101562 407.126953125 415 406.969726562 c 256
 499.6484375 406.713867188 563.838867188 345.403320312 564.435546875 238 c 256
 564.979492188 140.12890625 530.607421875 10.1630859375 299 9 c 256
 281 9 l 257
 280 94 l 257
59 0 m 257
 59 551 l 257
 459 551 l 257
 459 456 l 257
 359 456 l 257
 359 160 l 257
 254 160 l 257
 254 456 l 257
 164 456 l 257
 164 0 l 257
 59 0 l 257
EndSplineSet
Fore
SplineSet
588 0 m 1
 588 545 l 1
 623 545 l 1
 623 0 l 1
 588 0 l 1
293 0 m 1
 293 36 l 1
 600 36 l 1
 600 0 l 1
 293 0 l 1
298 234 m 1
 297 273 302 318 312 344 c 0
 330 392 358 414 400 414 c 0
 486 414 518 337 518 242 c 0
 518 87 454 2 310 0 c 0
 310 35 l 0
 451 39 484 136 484 238 c 0
 484 325 457 380 399 380 c 0
 363 380 339 343 328 309 c 4
 318 280 324 267 324 234 c 1
 298 234 l 1
90 0 m 1
 91 545 l 1
 435 545 l 1
 435 510 l 1
 325 510 l 1
 324 210 l 1
 288 210 l 1
 289 510 l 1
 127 510 l 1
 126 0 l 1
 90 0 l 1
EndSplineSet
EndChar

StartChar: tml_Na
Encoding: 23 2984 36
Width: 593
GlyphClass: 2
Flags: HMW
AnchorPoint: "tml_virama" 220 0 basechar 0
LayerCount: 2
Back
SplineSet
348 -53.3740234375 m 4
 472.499118908 -52.0068581237 519.998643394 5.68639306148 519.87109375 131 c 4
 519.790466177 198.744211226 498.927922605 265.890318337 445 265.752929688 c 4
 398.354997626 265.623411684 385.141676064 226.749203975 386 154 c 4
 386.194335938 136.6442676 386.004882812 117.367912103 386 98.71875 c 5
 286.580078125 91.28125 l 5
 276.970284721 175.297317212 295.177861204 248.584150835 324.5 292.061523438 c 4
 358.7690858 342.873976869 398.829400746 368.086328207 451 366.969726562 c 4
 565.625623818 364.711914063 622.092791624 253.403341214 622.435546875 136 c 4
 622.933245661 -61.8718729561 518.609785761 -163.369149743 347 -163.951171875 c 4
 197.012404651 -164.492677971 209.291478744 -240.047978865 209 -291 c 5
 107 -291 l 5
 107.761387937 -188.814962614 110.402584961 -55.9831579225 348 -53.3740234375 c 4
58 0 m 5
 58 551 l 5
 487 551 l 5
 487 456 l 5
 387 456 l 5
 387 0 l 5
 282 0 l 5
 282 456 l 5
 163 456 l 5
 163 0 l 5
 58 0 l 5
EndSplineSet
Fore
SplineSet
123 -292 m 1
 123 -207 130 -70 320 -65 c 0
 461 -61 514 -24 514 138 c 0
 514 225 494 300 436 300 c 0
 400 300 379 276 368 242 c 0
 358 213 354 177 354 144 c 1
 328 164 l 1
 327 203 332 236 342 262 c 0
 360 310 392 334 434 334 c 0
 520 334 548 237 548 142 c 0
 548 -63 464 -99 320 -101 c 0
 152 -103 159 -222 158 -292 c 1
 123 -292 l 1
60 0 m 1
 61 545 l 1
 465 545 l 1
 465 510 l 1
 355 510 l 1
 354 0 l 1
 318 0 l 1
 319 510 l 1
 97 510 l 1
 96 0 l 1
 60 0 l 1
EndSplineSet
EndChar

StartChar: tml_Ssa
Encoding: 35 2999 37
Width: 834
VWidth: 0
GlyphClass: 2
Flags: HMW
AnchorPoint: "tml_virama" 422 0 basechar 0
LayerCount: 2
Back
Fore
SplineSet
38 248 m 256
 38 426 99 555 232 555 c 0
 363 555 430 399 430 260 c 0
 430 174 422 106 389 33 c 257
 347 0 l 257
 347 31 l 257
 377 102 393 169 393 257 c 256
 393 377 337 520 231 520 c 256
 121 520 75 406 75 248 c 256
 75 114 106 16 179 16 c 256
 243 16 266 92 266 170 c 256
 266 235 240 313 173 313 c 256
 107 313 72 236 81 157 c 257
 57 187 l 257
 58 289 107 347 173 347 c 256
 255 347 302 265 302 170 c 256
 302 65 264 -17 179 -17 c 256
 83 -17 38 95 38 248 c 256
468 421 m 0
 468 482 492 556 557 556 c 0
 632 556 644 482 644 430 c 1
 608 430 l 1
 609 497 585 522 558 522 c 0
 520 523 503 465 503 417 c 0
 503 326 551 260 618 261 c 0
 704 262 738 324 738 405 c 0
 764 395 l 0
 764 309 719 226 618 226 c 0
 553 226 468 283 468 421 c 0
608 -152 m 1
 608 434 l 257
 644 434 l 257
 644 -152 l 257
 608 -152 l 1
347 -1 m 257
 347 31 l 257
 392 33 l 257
 738 33 l 257
 738 455 l 257
 774 455 l 257
 774 -1 l 257
 347 -1 l 257
EndSplineSet
EndChar

StartChar: tml_MatraU
Encoding: 41 3009 42
Width: 229
VWidth: 0
Flags: HMW
LayerCount: 2
Back
Fore
SplineSet
-133 510 m 260
 123 510 l 260
 131 510 167 511 167 436 c 260
 167 410 161 368 126 368 c 260
 94 368 83 407 83 436 c 260
 83 470 94 510 125 510 c 261
 122 536 l 261
 66 536 46 489 46 436 c 260
 46 384 73 333 126 333 c 260
 175 333 204 369 204 436 c 260
 204 530.27027027 153 545 107 545 c 262
 -133 545 l 4
 -133 510 l 260
EndSplineSet
EndChar

StartChar: tml_MatraUu
Encoding: 42 3010 43
Width: 335
VWidth: 0
Flags: HMW
LayerCount: 2
Back
Fore
SplineSet
-133 510 m 256
 103 510 l 256
 126.454545455 510 177 511 177 436 c 256
 177 410 171 368 136 368 c 256
 104 368 93 407 93 436 c 256
 93 504.796545621 121.804300959 543.002239131 167 543.002929688 c 256
 236.542559804 543.003965611 253 484.162151278 253 439 c 0
 253 378.726362396 214 323 214 323 c 1
 248 305 l 1
 248 305 290 367.076377532 290 439 c 0
 290 494.625100496 267.958618558 575.00714373 168 575.002929688 c 256
 104.916666657 574.999564862 56 529.671552734 56 436 c 256
 56 384 83 333 136 333 c 256
 185 333 214 369 214 436 c 256
 214 530.27027027 157.742268041 545 107 545 c 262
 -133 545 l 0
 -133 510 l 256
EndSplineSet
EndChar

StartChar: tml_MatraE
Encoding: 43 3014 44
Width: 458
VWidth: 0
Flags: HMW
LayerCount: 2
Back
SplineSet
0 239 m 260
 0 441 103 560 244 561 c 260
 411.654296875 562.241210938 472.991210938 462.942382812 473.858398438 271 c 5
 476 0 l 260
 370 0 l 260
 369.3125 271 l 5
 365.764648438 406.005859375 341.805664062 467 244 467 c 260
 160 467 99 370 99 249 c 260
 99 155 116 72 163 72 c 260
 208 72 216 135 216 173 c 260
 216 232 190 264 164 264 c 260
 125 264 97 215 108 143 c 261
 24 211 l 261
 46 260 75 362 169 362 c 260
 237 362 315 307 315 170 c 260
 315 52 258 -24 163 -24 c 260
 61 -24 0 87 0 239 c 260
EndSplineSet
Fore
SplineSet
39 248 m 256
 39 426 100 555 233 555 c 0
 422.225585938 555 413 371 413 371 c 1
 412 0 l 1
 376 0 l 1
 377 353 l 257
 377 490 307 520 232 520 c 256
 122 520 76 406 76 248 c 256
 76 116 107 18 180 18 c 256
 244 18 267 93 267 170 c 256
 267 235 241 312 174 312 c 256
 108 312 73 236 82 157 c 257
 59 183 l 257
 60 287 109 347 174 347 c 256
 256 347 303 265 303 170 c 256
 303 65 265 -17 180 -17 c 256
 84 -17 39 95 39 248 c 256
EndSplineSet
EndChar

StartChar: tml_MatraEe
Encoding: 44 3015 45
Width: 471
VWidth: 0
Flags: HMW
HStem: -134 36 160 35 298 35 492 37
VStem: 166 37 535 37 681 36 681 8
LayerCount: 2
Back
SplineSet
309 21 m 4
 354 21 371 76 371 117 c 4
 371 172 353 214 313 214 c 4
 278 214 254 178 254 117 c 4
 254 59 275 21 309 21 c 4
243.706054688 31.69140625 m 5
 225.102539062 54.470703125 217 85.076171875 217 117.999023438 c 4
 217 201.999023438 257 248.999023438 313 248.999023438 c 4
 367 248.999023438 408 204.999023438 408 116.999023438 c 4
 408 48.9990234375 381 -15.0009765625 304 -14.0009765625 c 4
 175.885742188 -13.015625 63.310546875 87.0322265625 60.0712890625 266.999023438 c 5
 60 266.999023438 l 6
 60 268.336914062 60.005859375 269.669921875 60.017578125 270.999023438 c 4
 60.005859375 272.328125 60 273.662109375 60 275 c 6
 60.0712890625 275 l 5
 63.310546875 454.966796875 175.885742188 555.014648438 304 556 c 4
 381 557 408 495 408 428 c 4
 408 338 365 293 309 293 c 4
 253 293 213 340 213 424 c 4
 213 456.2890625 221.165039062 486.350585938 239.983398438 508.985351562 c 5
 155.0390625 477.780273438 98.2822265625 388.356445312 97.021484375 271 c 4
 98.30078125 151.9375 156.701171875 61.6259765625 243.706054688 31.69140625 c 5
309.000976562 520.998046875 m 4
 272.000976562 520.998046875 250.000976562 482.998046875 250.000976562 424.998046875 c 4
 250.000976562 367.998046875 274.000976562 327.998046875 309.000976562 327.998046875 c 4
 351.000976562 327.998046875 371.000976562 370.998046875 371.000976562 427.998046875 c 4
 371.000976562 467.998046875 354.000976562 520.998046875 309.000976562 520.998046875 c 4
EndSplineSet
Fore
SplineSet
60 274 m 257
 60.8681318681 474.566433566 170.221200911 554.980896867 297 556 c 256
 362.075399818 556.52310437 408.835666465 511.413373928 408 424 c 256
 407.220514564 342.463340566 365.929833984 293 309 293 c 256
 254.34914966 293 212 342.904761905 212 424 c 256
 212 506.719261389 258.304812834 544.271315212 317 545 c 257
 306 521 l 257
 270.740740741 521 250 479.4 250 422 c 256
 250 365 279.517241379 327 309 327 c 256
 345 327 372 369.146341463 372 423 c 256
 372 465.318181818 354.068965517 521 307 521 c 256
 167.669100648 521 96.569591032 420.494332698 96.7421875 276 c 0
 96.9341589294 115.285334672 174.533459407 21 312 21 c 256
 354 21 370 75.5454545455 370 117 c 256
 370 181.975609756 345.142857143 215 312 215 c 256
 284.482758621 215 255 185.539294504 255 119 c 256
 255 61.0888888889 267.340740741 21 311 21 c 257
 312 -3 l 257
 238.020719219 -2.87294407895 216 61.0497532895 216 120 c 256
 216 204.01843318 262.291666667 249 311 249 c 256
 366.779736328 249 407.26272634 203.646327608 408 121 c 256
 408.788722826 32.5863638864 363.485150363 -14.1639956818 312 -14 c 256
 148.691381887 -13.4798129562 60.0387620192 90.1897810219 60 274 c 257
EndSplineSet
EndChar

StartChar: dottedcircle
Encoding: 74 9676 107
Width: 761
Flags: HMW
LayerCount: 2
Back
Fore
SplineSet
348 501 m 4
 348 510 351 518 357 524 c 4
 363 530 371 533 380 533 c 260
 389 533 397 530 403 524 c 4
 409 518 412 510 412 501 c 4
 412 492 409 484 403 478 c 4
 397 472 389 470 380 470 c 260
 371 470 363 472 357 478 c 4
 351 484 348 492 348 501 c 4
251 484 m 260
 251 493 254 501 261 507 c 4
 268 513 275 516 284 516 c 4
 293 516 300 513 306 507 c 4
 312 501 315 493 315 484 c 260
 315 475 312 467 306 461 c 4
 300 455 293 452 284 452 c 4
 275 452 268 455 261 461 c 4
 254 467 251 475 251 484 c 260
447 484 m 260
 447 493 450 501 456 507 c 4
 462 513 469 516 478 516 c 4
 488 516 496 513 502 507 c 4
 508 501 511 493 511 484 c 260
 511 475 508 467 502 461 c 4
 496 455 488 452 478 452 c 4
 469 452 462 455 456 461 c 4
 450 467 447 475 447 484 c 260
167 429 m 260
 167 438 170 446 176 452 c 4
 182 458 191 462 200 462 c 260
 209 462 216 459 222 453 c 4
 228 447 231 439 231 429 c 260
 231 419 228 412 222 406 c 4
 216 400 209 397 200 397 c 260
 191 397 182 400 176 406 c 4
 170 412 167 420 167 429 c 260
530 429 m 260
 530 439 533 447 539 453 c 4
 545 459 552 462 561 462 c 4
 571 462 580 458 586 452 c 4
 592 446 595 438 595 429 c 260
 595 420 592 412 586 406 c 4
 580 400 571 397 561 397 c 4
 552 397 545 400 539 406 c 4
 533 412 530 419 530 429 c 260
116 343 m 260
 116 352 119 360 125 366 c 4
 131 372 139 375 148 375 c 4
 158 375 166 372 171 366 c 4
 176 360 179 352 179 343 c 260
 179 334 176 326 171 320 c 4
 166 314 158 311 148 311 c 4
 139 311 131 314 125 320 c 4
 119 326 116 334 116 343 c 260
583 343 m 260
 583 352 586 360 592 366 c 4
 598 372 605 375 614 375 c 260
 623 375 631 372 637 366 c 4
 643 360 646 352 646 343 c 260
 646 334 643 326 637 320 c 4
 631 314 623 311 614 311 c 260
 605 311 598 314 592 320 c 4
 586 326 583 334 583 343 c 260
100 249 m 260
 100 258 104 266 110 272 c 4
 116 278 123 282 132 282 c 4
 141 282 149 278 155 272 c 4
 161 266 164 258 164 249 c 260
 164 240 161 232 155 226 c 4
 149 220 141 218 132 218 c 4
 123 218 116 220 110 226 c 4
 104 232 100 240 100 249 c 260
598 249 m 260
 598 258 600 266 606 272 c 4
 612 278 620 282 629 282 c 4
 639 282 646 278 652 272 c 4
 658 266 661 258 661 249 c 260
 661 240 658 232 652 226 c 4
 646 220 639 218 629 218 c 4
 620 218 612 220 606 226 c 4
 600 232 598 240 598 249 c 260
116 157 m 4
 116 166 119 174 125 180 c 4
 131 186 139 190 148 190 c 4
 158 190 166 186 171 180 c 4
 176 174 179 166 179 157 c 4
 179 148 176 141 171 135 c 4
 166 129 158 126 148 126 c 4
 139 126 131 129 125 135 c 4
 119 141 116 148 116 157 c 4
583 157 m 4
 583 166 586 174 592 180 c 4
 598 186 605 190 614 190 c 260
 623 190 631 186 637 180 c 4
 643 174 646 166 646 157 c 4
 646 148 643 141 637 135 c 4
 631 129 623 126 614 126 c 260
 605 126 598 129 592 135 c 4
 586 141 583 148 583 157 c 4
167 70 m 260
 167 79 170 88 176 94 c 4
 182 100 190 103 199 103 c 260
 208 103 216 100 222 94 c 4
 228 88 230 79 230 70 c 260
 230 61 228 53 222 47 c 4
 216 41 208 38 199 38 c 260
 190 38 182 41 176 47 c 4
 170 53 167 61 167 70 c 260
532 70 m 260
 532 79 534 88 540 94 c 4
 546 100 554 103 563 103 c 260
 572 103 580 100 586 94 c 4
 592 88 595 79 595 70 c 260
 595 61 592 53 586 47 c 4
 580 41 572 38 563 38 c 260
 554 38 546 41 540 47 c 4
 534 53 532 61 532 70 c 260
251 16 m 4
 251 26 254 34 261 40 c 4
 268 46 275 49 284 49 c 4
 293 49 300 46 306 40 c 4
 312 34 315 26 315 16 c 4
 315 7 312 0 306 -6 c 4
 300 -12 293 -15 284 -15 c 4
 275 -15 268 -12 261 -6 c 4
 254 0 251 7 251 16 c 4
447 16 m 4
 447 26 450 34 456 40 c 4
 462 46 469 49 478 49 c 4
 488 49 496 46 502 40 c 4
 508 34 511 26 511 16 c 4
 511 7 508 0 502 -6 c 4
 496 -12 488 -15 478 -15 c 4
 469 -15 462 -12 456 -6 c 4
 450 0 447 7 447 16 c 4
348 -1 m 4
 348 9 351 17 357 23 c 4
 363 29 371 32 380 32 c 260
 389 32 397 29 403 23 c 4
 409 17 412 9 412 -1 c 4
 412 -10 409 -18 403 -24 c 4
 397 -30 389 -32 380 -32 c 260
 371 -32 363 -30 357 -24 c 4
 351 -18 348 -10 348 -1 c 4
EndSplineSet
EndChar

